<?xml version="1.0" standalone="no"?>
<!DOCTYPE svg PUBLIC "-//W3C//DTD SVG 20010904//EN"
 "http://www.w3.org/TR/2001/REC-SVG-20010904/DTD/svg10.dtd">
<svg version="1.0" xmlns="http://www.w3.org/2000/svg"
 width="512.000000pt" height="512.000000pt" viewBox="0 0 512.000000 512.000000"
 preserveAspectRatio="xMidYMid meet">
<metadata>
Created by potrace 1.14, written by Peter Selinger 2001-2017
</metadata>
<g transform="translate(0.000000,512.000000) scale(0.100000,-0.100000)"
fill="#000000" stroke="none">
<path d="M784 5094 c-42 -14 -91 -64 -96 -98 -7 -40 10 -86 59 -163 59 -91 88
-154 108 -234 16 -62 31 -229 21 -229 -3 0 -14 4 -24 10 -44 25 -220 102 -244
107 -45 9 -96 -6 -134 -39 -42 -37 -53 -56 -60 -106 -7 -51 6 -81 86 -192 76
-105 130 -207 154 -289 23 -77 21 -85 -26 -116 -76 -50 -231 -215 -301 -320
-116 -176 -220 -432 -253 -625 -16 -93 -24 -142 -31 -195 -10 -77 -10 -460 0
-545 22 -192 30 -232 78 -408 l28 -103 -34 -67 c-71 -141 -106 -295 -110 -482
-5 -205 27 -379 97 -526 26 -55 35 -64 64 -70 18 -3 37 -3 42 0 6 3 26 -15 45
-41 20 -27 51 -63 70 -81 31 -30 34 -38 30 -71 -4 -31 -1 -42 18 -61 37 -35
176 -97 257 -113 90 -19 234 -15 317 8 86 23 132 25 202 5 226 -65 450 -25
631 114 30 22 60 45 66 50 8 5 38 -9 84 -39 293 -189 665 -209 975 -54 69 35
147 86 190 122 16 15 51 29 90 37 34 6 112 27 174 46 759 230 1359 802 1622
1548 96 272 136 511 136 821 0 235 -8 309 -60 570 -12 59 -70 250 -95 310 -7
17 -16 39 -19 50 -4 11 -43 92 -86 180 -70 140 -161 291 -229 377 -66 83 -87
109 -149 179 -78 88 -105 109 -142 109 -22 0 -181 -154 -852 -825 -454 -454
-827 -825 -828 -823 -2 2 -15 48 -29 103 -26 97 -26 100 -8 115 41 34 35 72
-34 218 -80 173 -242 375 -386 482 -32 23 -58 47 -58 54 0 15 27 105 41 136
27 61 66 128 108 188 84 116 103 151 106 194 5 69 -37 136 -102 164 -53 23
-90 17 -197 -32 -55 -26 -116 -53 -135 -61 l-34 -14 6 78 c15 175 47 265 148
413 53 78 57 130 14 185 -57 75 -107 75 -270 -4 -204 -98 -307 -175 -382 -288
-19 -29 -36 -53 -38 -53 -2 0 -17 22 -35 50 -43 67 -142 158 -234 213 -42 26
-78 47 -81 47 -2 0 -45 20 -97 44 -116 54 -126 56 -174 40z"/>
</g>
</svg>
